<svg width="22" height="18" viewBox="0 0 22 18" fill="none" xmlns="http://www.w3.org/2000/svg">
<path d="M1 9.73049H0.230769V8.19203H1V9.73049ZM21 8.19203C21.4248 8.19203 21.7692 8.53642 21.7692 8.96126C21.7692 9.38609 21.4248 9.73049 21 9.73049V8.19203ZM14.0769 16.6536V17.4228H12.5385V16.6536H14.0769ZM20.5544 8.36326C20.9273 8.15983 21.3946 8.29727 21.598 8.67023C21.8014 9.0432 21.664 9.51045 21.291 9.71388L20.5544 8.36326ZM12.5384 1.34626V0.57703H14.0769V1.34626H12.5384ZM1 8.19203H20.9226V9.73049H1V8.19203ZM20.9226 8.19203H21V9.73049H20.9226V8.19203ZM12.5385 16.6536C12.5385 15.5209 13.1502 14.4392 13.9012 13.5175C14.6675 12.577 15.6705 11.6922 16.6448 10.9393C17.6237 10.1829 18.5988 9.54053 19.3269 9.08821C19.6917 8.8616 19.9963 8.68163 20.2106 8.55778C20.3178 8.49584 20.4025 8.44787 20.461 8.41507C20.4903 8.39866 20.513 8.38605 20.5287 8.37736C20.5366 8.37302 20.5427 8.36966 20.547 8.36731C20.5491 8.36613 20.5508 8.3652 20.552 8.36452C20.5527 8.36419 20.5532 8.36391 20.5535 8.3637C20.5537 8.3636 20.5539 8.36348 20.554 8.36343C20.5542 8.36334 20.5544 8.36326 20.9227 9.03857C21.291 9.71388 21.2911 9.71383 21.2912 9.7138C21.2911 9.71381 21.2912 9.71379 21.2911 9.71382C21.2911 9.71386 21.2909 9.71396 21.2906 9.71413C21.29 9.71446 21.2889 9.71505 21.2874 9.71588C21.2843 9.71754 21.2795 9.72019 21.273 9.72381C21.2599 9.73106 21.2398 9.74219 21.2133 9.75705C21.1603 9.78678 21.0814 9.83143 20.9804 9.88981C20.7782 10.0066 20.4879 10.1782 20.1387 10.3951C19.4391 10.8297 18.5104 11.442 17.5855 12.1567C16.6561 12.8748 15.7554 13.6775 15.0939 14.4893C14.417 15.3199 14.0769 16.0554 14.0769 16.6536H12.5385ZM20.9226 8.96126C20.6344 9.67447 20.6342 9.67438 20.634 9.67429C20.6339 9.67424 20.6336 9.67413 20.6334 9.67404C20.6329 9.67384 20.6323 9.67361 20.6316 9.67332C20.6302 9.67275 20.6284 9.67199 20.626 9.67104C20.6214 9.66915 20.6149 9.6665 20.6067 9.6631C20.5903 9.65631 20.5669 9.64653 20.5369 9.63381C20.4769 9.60838 20.3906 9.57116 20.2817 9.52254C20.0641 9.42536 19.7558 9.28237 19.3869 9.09667C18.651 8.72623 17.6645 8.1811 16.6731 7.48511C15.6857 6.79191 14.6665 5.93045 13.8881 4.92007C13.1088 3.90858 12.5384 2.70418 12.5384 1.34626H14.0769C14.0769 2.25737 14.4583 3.13937 15.1068 3.98114C15.7562 4.82401 16.6408 5.58267 17.5571 6.22596C18.4695 6.86646 19.3867 7.37419 20.0787 7.72249C20.4236 7.89616 20.7103 8.029 20.9091 8.11782C21.0085 8.1622 21.0858 8.19552 21.1373 8.21737C21.1631 8.2283 21.1824 8.23635 21.1948 8.24148C21.201 8.24404 21.2055 8.24588 21.2082 8.24697C21.2095 8.24752 21.2104 8.24789 21.2109 8.24807C21.2111 8.24816 21.2112 8.2482 21.2112 8.2482C21.2112 8.24819 21.2111 8.24816 21.2111 8.24816C21.211 8.24811 21.2108 8.24805 20.9226 8.96126Z" fill="white"/>
</svg>
