<svg width="22" height="18" viewBox="0 0 22 18" fill="none" xmlns="http://www.w3.org/2000/svg">
<path d="M1 9.38423H0.230769V7.84577H1V9.38423ZM21 7.84577C21.4248 7.84577 21.7692 8.19017 21.7692 8.615C21.7692 9.03984 21.4248 9.38423 21 9.38423V7.84577ZM14.0769 16.3073V17.0765H12.5385V16.3073H14.0769ZM20.5544 8.017C20.9273 7.81358 21.3946 7.95102 21.598 8.32398C21.8014 8.69694 21.664 9.1642 21.291 9.36763L20.5544 8.017ZM12.5384 1.00001L12.5384 0.230778L14.0769 0.230778L14.0769 1.00001L12.5384 1.00001ZM1 7.84577H20.9226V9.38423H1V7.84577ZM20.9226 7.84577H21V9.38423H20.9226V7.84577ZM12.5385 16.3073C12.5385 15.1747 13.1502 14.0929 13.9012 13.1712C14.6675 12.2307 15.6705 11.346 16.6449 10.5931C17.6237 9.83665 18.5988 9.19427 19.3269 8.74196C19.6917 8.51535 19.9963 8.33538 20.2106 8.21153C20.3178 8.14959 20.4025 8.10162 20.461 8.06881C20.4903 8.05241 20.513 8.03979 20.5287 8.03111C20.5366 8.02677 20.5427 8.02341 20.547 8.02105C20.5491 8.01987 20.5508 8.01895 20.552 8.01827C20.5527 8.01793 20.5532 8.01766 20.5535 8.01745C20.5537 8.01734 20.5539 8.01723 20.554 8.01718C20.5542 8.01708 20.5544 8.017 20.9227 8.69232C21.291 9.36763 21.2911 9.36758 21.2912 9.36755C21.2911 9.36756 21.2912 9.36754 21.2911 9.36756C21.2911 9.3676 21.2909 9.36771 21.2906 9.36788C21.29 9.36821 21.2889 9.36879 21.2874 9.36962C21.2844 9.37129 21.2795 9.37394 21.273 9.37756C21.2599 9.38481 21.2398 9.39593 21.2133 9.4108C21.1603 9.44053 21.0814 9.48517 20.9804 9.54356C20.7782 9.66038 20.4879 9.83194 20.1387 10.0488C19.4391 10.4834 18.5104 11.0958 17.5855 11.8104C16.6561 12.5286 15.7554 13.3312 15.0939 14.143C14.417 14.9737 14.0769 15.7092 14.0769 16.3073H12.5385ZM20.9226 8.615C20.6344 9.32821 20.6342 9.32813 20.634 9.32803C20.6339 9.32799 20.6336 9.32788 20.6334 9.32778C20.6329 9.32759 20.6323 9.32735 20.6316 9.32707C20.6302 9.3265 20.6284 9.32574 20.626 9.32479C20.6214 9.3229 20.6149 9.32025 20.6067 9.31685C20.5903 9.31006 20.5669 9.30028 20.5369 9.28756C20.4769 9.26212 20.3906 9.2249 20.2817 9.17629C20.0641 9.07911 19.7558 8.93612 19.3869 8.75042C18.651 8.37998 17.6645 7.83485 16.6731 7.13886C15.6857 6.44566 14.6665 5.5842 13.8881 4.57382C13.1088 3.56233 12.5384 2.35793 12.5384 1.00001L14.0769 1.00001C14.0769 1.91112 14.4583 2.79311 15.1068 3.63488C15.7562 4.47776 16.6408 5.23642 17.5571 5.87971C18.4695 6.52021 19.3867 7.02794 20.0787 7.37624C20.4236 7.5499 20.7103 7.68275 20.9091 7.77157C21.0085 7.81595 21.0858 7.84927 21.1373 7.87112C21.1631 7.88204 21.1824 7.8901 21.1948 7.89523C21.201 7.89779 21.2055 7.89963 21.2082 7.90072C21.2095 7.90127 21.2104 7.90163 21.2109 7.90181C21.2111 7.9019 21.2112 7.90195 21.2112 7.90194C21.2112 7.90194 21.2111 7.9019 21.2111 7.9019C21.211 7.90185 21.2108 7.90179 20.9226 8.615Z" fill="#0C0C1D" fill-opacity="0.5"/>
<path d="M1 9.38423H0.230769V7.84577H1V9.38423ZM21 7.84577C21.4248 7.84577 21.7692 8.19017 21.7692 8.615C21.7692 9.03984 21.4248 9.38423 21 9.38423V7.84577ZM14.0769 16.3073V17.0765H12.5385V16.3073H14.0769ZM20.5544 8.017C20.9273 7.81358 21.3946 7.95102 21.598 8.32398C21.8014 8.69694 21.664 9.1642 21.291 9.36763L20.5544 8.017ZM12.5384 1.00001L12.5384 0.230778L14.0769 0.230778L14.0769 1.00001L12.5384 1.00001ZM1 7.84577H20.9226V9.38423H1V7.84577ZM20.9226 7.84577H21V9.38423H20.9226V7.84577ZM12.5385 16.3073C12.5385 15.1747 13.1502 14.0929 13.9012 13.1712C14.6675 12.2307 15.6705 11.346 16.6449 10.5931C17.6237 9.83665 18.5988 9.19427 19.3269 8.74196C19.6917 8.51535 19.9963 8.33538 20.2106 8.21153C20.3178 8.14959 20.4025 8.10162 20.461 8.06881C20.4903 8.05241 20.513 8.03979 20.5287 8.03111C20.5366 8.02677 20.5427 8.02341 20.547 8.02105C20.5491 8.01987 20.5508 8.01895 20.552 8.01827C20.5527 8.01793 20.5532 8.01766 20.5535 8.01745C20.5537 8.01734 20.5539 8.01723 20.554 8.01718C20.5542 8.01708 20.5544 8.017 20.9227 8.69232C21.291 9.36763 21.2911 9.36758 21.2912 9.36755C21.2911 9.36756 21.2912 9.36754 21.2911 9.36756C21.2911 9.3676 21.2909 9.36771 21.2906 9.36788C21.29 9.36821 21.2889 9.36879 21.2874 9.36962C21.2844 9.37129 21.2795 9.37394 21.273 9.37756C21.2599 9.38481 21.2398 9.39593 21.2133 9.4108C21.1603 9.44053 21.0814 9.48517 20.9804 9.54356C20.7782 9.66038 20.4879 9.83194 20.1387 10.0488C19.4391 10.4834 18.5104 11.0958 17.5855 11.8104C16.6561 12.5286 15.7554 13.3312 15.0939 14.143C14.417 14.9737 14.0769 15.7092 14.0769 16.3073H12.5385ZM20.9226 8.615C20.6344 9.32821 20.6342 9.32813 20.634 9.32803C20.6339 9.32799 20.6336 9.32788 20.6334 9.32778C20.6329 9.32759 20.6323 9.32735 20.6316 9.32707C20.6302 9.3265 20.6284 9.32574 20.626 9.32479C20.6214 9.3229 20.6149 9.32025 20.6067 9.31685C20.5903 9.31006 20.5669 9.30028 20.5369 9.28756C20.4769 9.26212 20.3906 9.2249 20.2817 9.17629C20.0641 9.07911 19.7558 8.93612 19.3869 8.75042C18.651 8.37998 17.6645 7.83485 16.6731 7.13886C15.6857 6.44566 14.6665 5.5842 13.8881 4.57382C13.1088 3.56233 12.5384 2.35793 12.5384 1.00001L14.0769 1.00001C14.0769 1.91112 14.4583 2.79311 15.1068 3.63488C15.7562 4.47776 16.6408 5.23642 17.5571 5.87971C18.4695 6.52021 19.3867 7.02794 20.0787 7.37624C20.4236 7.5499 20.7103 7.68275 20.9091 7.77157C21.0085 7.81595 21.0858 7.84927 21.1373 7.87112C21.1631 7.88204 21.1824 7.8901 21.1948 7.89523C21.201 7.89779 21.2055 7.89963 21.2082 7.90072C21.2095 7.90127 21.2104 7.90163 21.2109 7.90181C21.2111 7.9019 21.2112 7.90195 21.2112 7.90194C21.2112 7.90194 21.2111 7.9019 21.2111 7.9019C21.211 7.90185 21.2108 7.90179 20.9226 8.615Z" fill="black" fill-opacity="0.2"/>
</svg>
