<svg width="56" height="56" viewBox="0 0 56 56" fill="none" xmlns="http://www.w3.org/2000/svg">
<rect x="0.5" y="-0.5" width="55" height="54.3073" rx="27.1537" transform="matrix(1 -8.74228e-08 -8.74228e-08 -1 -4.37114e-08 54.3073)" stroke="black" stroke-opacity="0.13"/>
<path d="M38 26.9231H38.7692V28.4615H38V26.9231ZM18 28.4615C17.5752 28.4615 17.2308 28.1171 17.2308 27.6923C17.2308 27.2675 17.5752 26.9231 18 26.9231V28.4615ZM24.9231 20V19.2308H26.4615V20H24.9231ZM18.4456 28.2903C18.0727 28.4937 17.6054 28.3563 17.402 27.9833C17.1986 27.6104 17.336 27.1431 17.709 26.9397L18.4456 28.2903ZM26.4616 35.3073V36.0765H24.9231V35.3073H26.4616ZM38 28.4615H18.0774V26.9231H38V28.4615ZM18.0774 28.4615H18V26.9231H18.0774V28.4615ZM26.4615 20C26.4615 21.1326 25.8498 22.2144 25.0988 23.1361C24.3325 24.0766 23.3295 24.9614 22.3552 25.7143C21.3763 26.4707 20.4012 27.113 19.6731 27.5654C19.3083 27.792 19.0037 27.9719 18.7894 28.0958C18.6822 28.1577 18.5975 28.2057 18.539 28.2385C18.5097 28.2549 18.487 28.2675 18.4713 28.2762C18.4634 28.2805 18.4573 28.2839 18.453 28.2863C18.4509 28.2874 18.4492 28.2884 18.448 28.289C18.4473 28.2894 18.4468 28.2897 18.4465 28.2899C18.4463 28.29 18.4461 28.2901 18.446 28.2901C18.4458 28.2902 18.4456 28.2903 18.0773 27.615C17.709 26.9397 17.7089 26.9397 17.7088 26.9398C17.7089 26.9398 17.7088 26.9398 17.7089 26.9397C17.7089 26.9397 17.7091 26.9396 17.7094 26.9394C17.71 26.9391 17.7111 26.9385 17.7126 26.9377C17.7157 26.936 17.7205 26.9334 17.727 26.9298C17.7401 26.9225 17.7602 26.9114 17.7867 26.8965C17.8397 26.8668 17.9186 26.8221 18.0196 26.7638C18.2218 26.6469 18.5121 26.4754 18.8613 26.2585C19.5609 25.8239 20.4896 25.2115 21.4145 24.4969C22.3439 23.7787 23.2446 22.9761 23.9061 22.1643C24.583 21.3336 24.9231 20.5981 24.9231 20H26.4615ZM18.0774 27.6923C18.3656 26.9791 18.3658 26.9792 18.366 26.9793C18.3661 26.9793 18.3664 26.9794 18.3666 26.9795C18.3671 26.9797 18.3677 26.98 18.3684 26.9802C18.3698 26.9808 18.3716 26.9816 18.374 26.9825C18.3786 26.9844 18.3851 26.9871 18.3933 26.9905C18.4097 26.9973 18.4331 27.007 18.4631 27.0198C18.5231 27.0452 18.6094 27.0824 18.7183 27.131C18.9359 27.2282 19.2442 27.3712 19.6131 27.5569C20.349 27.9273 21.3355 28.4725 22.3269 29.1685C23.3143 29.8617 24.3335 30.7231 25.1119 31.7335C25.8912 32.745 26.4616 33.9494 26.4616 35.3073H24.9231C24.9231 34.3962 24.5417 33.5142 23.8932 32.6724C23.2438 31.8296 22.3592 31.0709 21.4429 30.4276C20.5305 29.7871 19.6133 29.2794 18.9213 28.9311C18.5764 28.7574 18.2897 28.6246 18.0909 28.5357C17.9915 28.4914 17.9142 28.458 17.8627 28.4362C17.8369 28.4253 17.8176 28.4172 17.8052 28.4121C17.799 28.4095 17.7945 28.4077 17.7918 28.4066C17.7905 28.406 17.7896 28.4057 17.7891 28.4055C17.7889 28.4054 17.7888 28.4054 17.7888 28.4054C17.7888 28.4054 17.7889 28.4054 17.7889 28.4054C17.789 28.4055 17.7892 28.4055 18.0774 27.6923Z" fill="black"/>
</svg>
