<svg width="56" height="56" viewBox="0 0 56 56" fill="none" xmlns="http://www.w3.org/2000/svg">
<rect x="-0.5" y="0.5" width="55" height="54.3073" rx="27.1537" transform="matrix(-1 8.74228e-08 8.74228e-08 1 55 4.37114e-08)" stroke="black" stroke-opacity="0.13"/>
<path d="M18 28.3842H17.2308V26.8458H18V28.3842ZM38 26.8458C38.4248 26.8458 38.7692 27.1902 38.7692 27.615C38.7692 28.0398 38.4248 28.3842 38 28.3842V26.8458ZM31.0769 35.3073V36.0765H29.5385V35.3073H31.0769ZM37.5544 27.017C37.9273 26.8136 38.3946 26.951 38.598 27.324C38.8014 27.6969 38.664 28.1642 38.291 28.3676L37.5544 27.017ZM29.5384 20V19.2308H31.0769V20H29.5384ZM18 26.8458H37.9226V28.3842H18V26.8458ZM37.9226 26.8458H38V28.3842H37.9226V26.8458ZM29.5385 35.3073C29.5385 34.1747 30.1502 33.0929 30.9012 32.1712C31.6675 31.2307 32.6705 30.346 33.6448 29.5931C34.6237 28.8367 35.5988 28.1943 36.3269 27.742C36.6917 27.5154 36.9963 27.3354 37.2106 27.2115C37.3178 27.1496 37.4025 27.1016 37.461 27.0688C37.4903 27.0524 37.513 27.0398 37.5287 27.0311C37.5366 27.0268 37.5427 27.0234 37.547 27.0211C37.5491 27.0199 37.5508 27.0189 37.552 27.0183C37.5527 27.0179 37.5532 27.0177 37.5535 27.0174C37.5537 27.0173 37.5539 27.0172 37.554 27.0172C37.5542 27.0171 37.5544 27.017 37.9227 27.6923C38.291 28.3676 38.2911 28.3676 38.2912 28.3675C38.2911 28.3676 38.2912 28.3675 38.2911 28.3676C38.2911 28.3676 38.2909 28.3677 38.2906 28.3679C38.29 28.3682 38.2889 28.3688 38.2874 28.3696C38.2843 28.3713 38.2795 28.3739 38.273 28.3776C38.2599 28.3848 38.2398 28.3959 38.2133 28.4108C38.1603 28.4405 38.0814 28.4852 37.9804 28.5436C37.7782 28.6604 37.4879 28.8319 37.1387 29.0488C36.4391 29.4834 35.5104 30.0958 34.5855 30.8104C33.6561 31.5286 32.7554 32.3312 32.0939 33.143C31.417 33.9737 31.0769 34.7092 31.0769 35.3073H29.5385ZM37.9226 27.615C37.6344 28.3282 37.6342 28.3281 37.634 28.328C37.6339 28.328 37.6336 28.3279 37.6334 28.3278C37.6329 28.3276 37.6323 28.3274 37.6316 28.3271C37.6302 28.3265 37.6284 28.3257 37.626 28.3248C37.6214 28.3229 37.6149 28.3202 37.6067 28.3169C37.5903 28.3101 37.5669 28.3003 37.5369 28.2876C37.4769 28.2621 37.3906 28.2249 37.2817 28.1763C37.0641 28.0791 36.7558 27.9361 36.3869 27.7504C35.651 27.38 34.6645 26.8349 33.6731 26.1389C32.6857 25.4457 31.6665 24.5842 30.8881 23.5738C30.1088 22.5623 29.5384 21.3579 29.5384 20H31.0769C31.0769 20.9111 31.4583 21.7931 32.1068 22.6349C32.7562 23.4778 33.6408 24.2364 34.5571 24.8797C35.4695 25.5202 36.3867 26.0279 37.0787 26.3762C37.4236 26.5499 37.7103 26.6828 37.9091 26.7716C38.0085 26.816 38.0858 26.8493 38.1373 26.8711C38.1631 26.882 38.1824 26.8901 38.1948 26.8952C38.201 26.8978 38.2055 26.8996 38.2082 26.9007C38.2095 26.9013 38.2104 26.9016 38.2109 26.9018C38.2111 26.9019 38.2112 26.9019 38.2112 26.9019C38.2112 26.9019 38.2111 26.9019 38.2111 26.9019C38.211 26.9019 38.2108 26.9018 37.9226 27.615Z" fill="#0C0C1D"/>
<path d="M18 28.3842H17.2308V26.8458H18V28.3842ZM38 26.8458C38.4248 26.8458 38.7692 27.1902 38.7692 27.615C38.7692 28.0398 38.4248 28.3842 38 28.3842V26.8458ZM31.0769 35.3073V36.0765H29.5385V35.3073H31.0769ZM37.5544 27.017C37.9273 26.8136 38.3946 26.951 38.598 27.324C38.8014 27.6969 38.664 28.1642 38.291 28.3676L37.5544 27.017ZM29.5384 20V19.2308H31.0769V20H29.5384ZM18 26.8458H37.9226V28.3842H18V26.8458ZM37.9226 26.8458H38V28.3842H37.9226V26.8458ZM29.5385 35.3073C29.5385 34.1747 30.1502 33.0929 30.9012 32.1712C31.6675 31.2307 32.6705 30.346 33.6448 29.5931C34.6237 28.8367 35.5988 28.1943 36.3269 27.742C36.6917 27.5154 36.9963 27.3354 37.2106 27.2115C37.3178 27.1496 37.4025 27.1016 37.461 27.0688C37.4903 27.0524 37.513 27.0398 37.5287 27.0311C37.5366 27.0268 37.5427 27.0234 37.547 27.0211C37.5491 27.0199 37.5508 27.0189 37.552 27.0183C37.5527 27.0179 37.5532 27.0177 37.5535 27.0174C37.5537 27.0173 37.5539 27.0172 37.554 27.0172C37.5542 27.0171 37.5544 27.017 37.9227 27.6923C38.291 28.3676 38.2911 28.3676 38.2912 28.3675C38.2911 28.3676 38.2912 28.3675 38.2911 28.3676C38.2911 28.3676 38.2909 28.3677 38.2906 28.3679C38.29 28.3682 38.2889 28.3688 38.2874 28.3696C38.2843 28.3713 38.2795 28.3739 38.273 28.3776C38.2599 28.3848 38.2398 28.3959 38.2133 28.4108C38.1603 28.4405 38.0814 28.4852 37.9804 28.5436C37.7782 28.6604 37.4879 28.8319 37.1387 29.0488C36.4391 29.4834 35.5104 30.0958 34.5855 30.8104C33.6561 31.5286 32.7554 32.3312 32.0939 33.143C31.417 33.9737 31.0769 34.7092 31.0769 35.3073H29.5385ZM37.9226 27.615C37.6344 28.3282 37.6342 28.3281 37.634 28.328C37.6339 28.328 37.6336 28.3279 37.6334 28.3278C37.6329 28.3276 37.6323 28.3274 37.6316 28.3271C37.6302 28.3265 37.6284 28.3257 37.626 28.3248C37.6214 28.3229 37.6149 28.3202 37.6067 28.3169C37.5903 28.3101 37.5669 28.3003 37.5369 28.2876C37.4769 28.2621 37.3906 28.2249 37.2817 28.1763C37.0641 28.0791 36.7558 27.9361 36.3869 27.7504C35.651 27.38 34.6645 26.8349 33.6731 26.1389C32.6857 25.4457 31.6665 24.5842 30.8881 23.5738C30.1088 22.5623 29.5384 21.3579 29.5384 20H31.0769C31.0769 20.9111 31.4583 21.7931 32.1068 22.6349C32.7562 23.4778 33.6408 24.2364 34.5571 24.8797C35.4695 25.5202 36.3867 26.0279 37.0787 26.3762C37.4236 26.5499 37.7103 26.6828 37.9091 26.7716C38.0085 26.816 38.0858 26.8493 38.1373 26.8711C38.1631 26.882 38.1824 26.8901 38.1948 26.8952C38.201 26.8978 38.2055 26.8996 38.2082 26.9007C38.2095 26.9013 38.2104 26.9016 38.2109 26.9018C38.2111 26.9019 38.2112 26.9019 38.2112 26.9019C38.2112 26.9019 38.2111 26.9019 38.2111 26.9019C38.211 26.9019 38.2108 26.9018 37.9226 27.615Z" fill="black" fill-opacity="0.2"/>
</svg>
