<svg width="44" height="44" viewBox="0 0 44 44" fill="none" xmlns="http://www.w3.org/2000/svg">
<path d="M39.75 16.75V31.3333C39.75 34.096 38.6525 36.7455 36.699 38.699C34.7455 40.6525 32.096 41.75 29.3333 41.75H12.6667C9.90399 41.75 7.25447 40.6525 5.30097 38.699C3.34747 36.7455 2.25 34.096 2.25 31.3333V14.6667C2.25 11.904 3.34747 9.25447 5.30097 7.30097C7.25447 5.34747 9.90399 4.25 12.6667 4.25H27.25" stroke="#521B26" stroke-width="3" stroke-linecap="round" stroke-linejoin="round"/>
<path d="M11.625 26.125L15.6667 22.0833C15.9554 21.7911 16.2993 21.559 16.6783 21.4006C17.0574 21.2423 17.4642 21.1607 17.875 21.1607C18.2858 21.1607 18.6926 21.2423 19.0717 21.4006C19.4507 21.559 19.7946 21.7911 20.0833 22.0833L21.9167 23.9167C22.2054 24.2089 22.5493 24.441 22.9283 24.5994C23.3074 24.7577 23.7142 24.8393 24.125 24.8393C24.5358 24.8393 24.9426 24.7577 25.3217 24.5994C25.7007 24.441 26.0446 24.2089 26.3333 23.9167L30.375 19.875" stroke="#BE8233" stroke-width="3" stroke-linecap="round" stroke-linejoin="round"/>
<path d="M37.6667 10.5001C39.9679 10.5001 41.8333 8.6346 41.8333 6.33342C41.8333 4.03223 39.9679 2.16675 37.6667 2.16675C35.3655 2.16675 33.5 4.03223 33.5 6.33342C33.5 8.6346 35.3655 10.5001 37.6667 10.5001Z" stroke="#BE8233" stroke-width="3" stroke-linecap="round" stroke-linejoin="round"/>
</svg>
