<svg width="50" height="50" viewBox="0 0 50 50" fill="none" xmlns="http://www.w3.org/2000/svg">
<path d="M4.1665 43.75H45.8332" stroke="#521B26" stroke-width="3" stroke-linecap="round" stroke-linejoin="round"/>
<path d="M10.4163 6.25H19.7913C21.1727 6.25 22.4974 6.79873 23.4742 7.77549C24.4509 8.75224 24.9997 10.077 24.9997 11.4583V43.75H5.20801V11.4583C5.20801 10.077 5.75674 8.75224 6.73349 7.77549C7.71025 6.79873 9.03501 6.25 10.4163 6.25Z" stroke="#521B26" stroke-width="3" stroke-linecap="round" stroke-linejoin="round"/>
<path d="M25 15.625H39.5833C40.2673 15.625 40.9446 15.7597 41.5765 16.0215C42.2084 16.2832 42.7825 16.6668 43.2662 17.1505C43.7498 17.6341 44.1335 18.2083 44.3952 18.8402C44.657 19.4721 44.7917 20.1494 44.7917 20.8333V43.75H25V15.625Z" stroke="#521B26" stroke-width="3" stroke-linecap="round" stroke-linejoin="round"/>
<path d="M32.8125 34.375H36.9792" stroke="#BE8233" stroke-width="3" stroke-linecap="round" stroke-linejoin="round"/>
<path d="M32.8125 25H36.9792" stroke="#BE8233" stroke-width="3" stroke-linecap="round" stroke-linejoin="round"/>
<path d="M13.0205 15.625H17.1872" stroke="#BE8233" stroke-width="3" stroke-linecap="round" stroke-linejoin="round"/>
<path d="M13.104 25H17.104" stroke="#BE8233" stroke-width="3" stroke-linecap="round" stroke-linejoin="round"/>
<path d="M13.0205 34.375H17.1872" stroke="#BE8233" stroke-width="3" stroke-linecap="round" stroke-linejoin="round"/>
</svg>
