<svg width="51" height="50" viewBox="0 0 51 50" fill="none" xmlns="http://www.w3.org/2000/svg">
<path d="M5.87305 45H8.69658M8.69658 45H16.6966M8.69658 45V27.4762C8.69658 26.3716 9.59201 25.4762 10.6966 25.4762H16.6966M45.873 45H43.9907M43.9907 45V14.7689C43.9907 14.0316 43.585 13.3541 42.9351 13.006L30.9351 6.57738C29.6028 5.86363 27.9907 6.82887 27.9907 8.34034V15.9524M43.9907 45H35.9907M27.9907 15.9524H33.9907C35.0953 15.9524 35.9907 16.8478 35.9907 17.9524V45M27.9907 15.9524H18.6966C17.592 15.9524 16.6966 16.8478 16.6966 17.9524V25.4762M35.9907 45H16.6966M16.6966 45V25.4762" stroke="#521B26" stroke-width="2" stroke-linecap="round"/>
<path d="M22.873 22H28.873" stroke="#BE8233" stroke-width="2" stroke-linecap="round"/>
<path d="M22.873 30H28.873" stroke="#BE8233" stroke-width="2" stroke-linecap="round"/>
<path d="M22.873 38H28.873" stroke="#BE8233" stroke-width="2" stroke-linecap="round"/>
</svg>
