<svg width="51" height="50" viewBox="0 0 51 50" fill="none" xmlns="http://www.w3.org/2000/svg">
<path d="M35.4551 26.5V14.5C35.4551 13.3954 34.5596 12.5 33.4551 12.5H17.9551C16.8505 12.5 15.9551 13.3954 15.9551 14.5V45.5" stroke="#521B26" stroke-width="2" stroke-linecap="round"/>
<path d="M15.4551 25H7.95508C6.85051 25 5.95508 25.8954 5.95508 27V44C5.95508 45.1046 6.85051 46 7.95508 46H33.4551C34.5596 46 35.4551 45.1046 35.4551 44V27C35.4551 25.8954 36.3505 25 37.4551 25H43.4551C44.5596 25 45.4551 25.8954 45.4551 27V44C45.4551 45.1046 44.5596 46 43.4551 46H32.9551" stroke="#521B26" stroke-width="2" stroke-linecap="round"/>
<path d="M20.9551 18H29.9551" stroke="#BE8233" stroke-width="2" stroke-linecap="round"/>
<path d="M22.9551 26H28.4551" stroke="#BE8233" stroke-width="2" stroke-linecap="round"/>
<path d="M22.4551 45.5V38C22.4551 37.4477 22.9028 37 23.4551 37H27.9551C28.5074 37 28.9551 37.4477 28.9551 38V45.5" stroke="#521B26" stroke-width="2" stroke-linecap="round"/>
<path d="M10.9551 31V36" stroke="#BE8233" stroke-width="2" stroke-linecap="round"/>
<path d="M40.9551 31V36" stroke="#BE8233" stroke-width="2" stroke-linecap="round"/>
<path d="M24.8163 2.86317C25.3231 1.95439 25.5763 1.5 25.9551 1.5C26.3339 1.5 26.5871 1.95439 27.0939 2.86317L27.225 3.09836C27.369 3.35676 27.441 3.48595 27.553 3.57115C27.665 3.65635 27.805 3.68795 28.085 3.75115L28.3394 3.80875C29.3234 4.03154 29.815 4.14274 29.9322 4.51913C30.049 4.89512 29.7138 5.28751 29.043 6.07189L28.8694 6.27469C28.679 6.49748 28.5834 6.60908 28.5406 6.74668C28.4978 6.88467 28.5122 7.03347 28.541 7.33066L28.5674 7.60146C28.6686 8.64823 28.7194 9.17142 28.413 9.40381C28.1066 9.63661 27.6458 9.42421 26.7251 9.00022L26.4863 8.89063C26.2247 8.76983 26.0939 8.70983 25.9551 8.70983C25.8163 8.70983 25.6855 8.76983 25.4239 8.89063L25.1855 9.00022C24.2643 9.42421 23.8035 9.63621 23.4975 9.40421C23.1907 9.17142 23.2415 8.64823 23.3427 7.60146L23.3691 7.33106C23.3979 7.03347 23.4123 6.88467 23.3691 6.74708C23.3267 6.60908 23.2311 6.49748 23.0407 6.27509L22.8672 6.07189C22.1964 5.28791 21.8612 4.89552 21.978 4.51913C22.0952 4.14274 22.5872 4.03114 23.5711 3.80875L23.8255 3.75115C24.1051 3.68795 24.2447 3.65635 24.3571 3.57115C24.4691 3.48595 24.5411 3.35676 24.6851 3.09836L24.8163 2.86317Z" stroke="#BE8233"/>
<path d="M33.3857 5.18158C33.6391 4.72719 33.7657 4.5 33.9551 4.5C34.1445 4.5 34.2711 4.72719 34.5245 5.18158L34.5901 5.29918C34.6621 5.42838 34.6981 5.49298 34.7541 5.53558C34.8101 5.57817 34.8801 5.59397 35.0201 5.62557L35.1473 5.65437C35.6392 5.76577 35.885 5.82137 35.9436 6.00956C36.002 6.19756 35.8344 6.39376 35.499 6.78595L35.4122 6.88734C35.317 6.99874 35.2692 7.05454 35.2478 7.12334C35.2264 7.19234 35.2336 7.26674 35.248 7.41533L35.2612 7.55073C35.3118 8.07412 35.3372 8.33571 35.184 8.45191C35.0309 8.5683 34.8005 8.46211 34.3401 8.25011L34.2207 8.19531C34.0899 8.13491 34.0245 8.10492 33.9551 8.10492C33.8857 8.10492 33.8203 8.13491 33.6895 8.19531L33.5703 8.25011C33.1097 8.46211 32.8793 8.5681 32.7263 8.45211C32.5729 8.33571 32.5983 8.07412 32.6489 7.55073L32.6621 7.41553C32.6765 7.26673 32.6837 7.19234 32.6621 7.12354C32.6409 7.05454 32.5931 6.99874 32.4979 6.88754L32.4111 6.78595C32.0757 6.39396 31.9081 6.19776 31.9665 6.00956C32.0251 5.82137 32.2711 5.76557 32.7631 5.65437L32.8903 5.62557C33.0301 5.59397 33.0999 5.57817 33.1561 5.53558C33.2121 5.49298 33.2481 5.42838 33.3201 5.29918L33.3857 5.18158Z" stroke="#BE8233" stroke-width="0.8"/>
<path d="M17.3857 5.18158C17.6391 4.72719 17.7657 4.5 17.9551 4.5C18.1445 4.5 18.2711 4.72719 18.5245 5.18158L18.5901 5.29918C18.6621 5.42838 18.6981 5.49298 18.7541 5.53558C18.8101 5.57817 18.8801 5.59397 19.0201 5.62557L19.1473 5.65437C19.6392 5.76577 19.885 5.82137 19.9436 6.00956C20.002 6.19756 19.8344 6.39376 19.499 6.78595L19.4122 6.88734C19.317 6.99874 19.2692 7.05454 19.2478 7.12334C19.2264 7.19234 19.2336 7.26674 19.248 7.41533L19.2612 7.55073C19.3118 8.07412 19.3372 8.33571 19.184 8.45191C19.0309 8.5683 18.8005 8.46211 18.3401 8.25011L18.2207 8.19531C18.0899 8.13491 18.0245 8.10492 17.9551 8.10492C17.8857 8.10492 17.8203 8.13491 17.6895 8.19531L17.5703 8.25011C17.1097 8.46211 16.8793 8.5681 16.7263 8.45211C16.5729 8.33571 16.5983 8.07412 16.6489 7.55073L16.6621 7.41553C16.6765 7.26673 16.6837 7.19234 16.6621 7.12354C16.6409 7.05454 16.5931 6.99874 16.4979 6.88754L16.4111 6.78595C16.0757 6.39396 15.9081 6.19776 15.9665 6.00956C16.0251 5.82137 16.2711 5.76557 16.7631 5.65437L16.8903 5.62557C17.0301 5.59397 17.0999 5.57817 17.1561 5.53558C17.2121 5.49298 17.2481 5.42838 17.3201 5.29918L17.3857 5.18158Z" stroke="#BE8233" stroke-width="0.8"/>
</svg>
