<svg width="50" height="50" viewBox="0 0 50 50" fill="none" xmlns="http://www.w3.org/2000/svg">
<path d="M4.16699 43.75H45.8337" stroke="white" stroke-width="3" stroke-linecap="round" stroke-linejoin="round"/>
<path d="M10.4173 6.25H19.7923C21.1737 6.25 22.4984 6.79873 23.4752 7.77549C24.4519 8.75224 25.0007 10.077 25.0007 11.4583V43.75H5.20898V11.4583C5.20898 10.077 5.75772 8.75224 6.73447 7.77549C7.71122 6.79873 9.03598 6.25 10.4173 6.25Z" stroke="white" stroke-width="3" stroke-linecap="round" stroke-linejoin="round"/>
<path d="M25 15.625H39.5833C40.2673 15.625 40.9446 15.7597 41.5765 16.0215C42.2084 16.2832 42.7825 16.6668 43.2662 17.1505C43.7498 17.6341 44.1335 18.2083 44.3952 18.8402C44.657 19.4721 44.7917 20.1494 44.7917 20.8333V43.75H25V15.625Z" stroke="white" stroke-width="3" stroke-linecap="round" stroke-linejoin="round"/>
<path d="M32.8125 34.375H36.9792" stroke="#BE8233" stroke-width="3" stroke-linecap="round" stroke-linejoin="round"/>
<path d="M32.8125 25H36.9792" stroke="#BE8233" stroke-width="3" stroke-linecap="round" stroke-linejoin="round"/>
<path d="M13.0215 15.625H17.1882" stroke="#BE8233" stroke-width="3" stroke-linecap="round" stroke-linejoin="round"/>
<path d="M13.1045 25H17.1045" stroke="#BE8233" stroke-width="3" stroke-linecap="round" stroke-linejoin="round"/>
<path d="M13.0215 34.375H17.1882" stroke="#BE8233" stroke-width="3" stroke-linecap="round" stroke-linejoin="round"/>
</svg>
