<svg width="70" height="70" viewBox="0 0 70 70" fill="none" xmlns="http://www.w3.org/2000/svg">
<circle cx="35" cy="35" r="35" fill="#63313B"/>
<path d="M34.0771 28.6923C34.2793 23.3077 38.5271 19 43.7128 19C44.1357 19 44.5587 19.0385 44.9816 19.0962C44.9816 19.3269 45 19.5769 45 19.8077C45 26.1346 40.1086 31.2499 34.0587 31.2499C29.5534 31.2499 25.6918 28.4038 24 24.3461C24.8643 24.0192 25.8021 23.8461 26.7583 23.8461C29.9947 23.8461 32.7715 25.8461 34.0587 28.7115M34.0743 35V28.6923" stroke="white" stroke-width="1.3" stroke-linecap="round" stroke-linejoin="round"/>
<path d="M21 40.8417C21 40.8417 24.1738 38.3801 27.4969 39.3354C30.82 40.2906 31.4734 42.5134 33.9377 42.2746C35.6926 42.1093 36.9435 41.9807 37.5222 41.9256C37.8209 41.8888 38.1383 41.9256 38.3996 42.0725C38.773 42.2562 39.2024 42.5685 39.2958 43.138C39.4451 44.13 38.3063 44.6811 38.3063 44.6811C38.3063 44.6811 35.0765 45.7466 34.0311 45.8017C32.9856 45.8568 29.7745 45.2322 29.7745 45.2322M21.5798 47.6571C21.5798 47.6571 22.7186 47.1427 23.708 47.2713C24.6975 47.3999 32.4452 49.8248 32.9493 49.8983C33.4533 49.9717 34.3121 50.2657 36.0297 49.3288C37.7472 48.3919 48.5193 43.0278 48.5193 43.0278C48.5193 43.0278 49.2474 42.44 48.9114 41.2459C48.5754 40.0518 47.5859 40.1253 47.0632 40.2539C46.5404 40.3825 39.2781 43.138 39.2781 43.138M25.0875 39.17C27.1225 36.6349 30.2775 35 33.806 35C38.2866 35 42.1511 37.6086 43.906 41.3745" stroke="white" stroke-width="1.3" stroke-linecap="round" stroke-linejoin="round"/>
</svg>
