<svg width="22" height="18" viewBox="0 0 22 18" fill="none" xmlns="http://www.w3.org/2000/svg">
<path d="M1 9.73055H0.230769V8.19209H1V9.73055ZM21 8.19209C21.4248 8.19209 21.7692 8.53648 21.7692 8.96132C21.7692 9.38615 21.4248 9.73055 21 9.73055V8.19209ZM14.0769 16.6536V17.4229H12.5385V16.6536H14.0769ZM20.5544 8.36332C20.9273 8.15989 21.3946 8.29733 21.598 8.67029C21.8014 9.04326 21.664 9.51051 21.291 9.71394L20.5544 8.36332ZM12.5384 1.34632V0.577091H14.0769V1.34632H12.5384ZM1 8.19209H20.9226V9.73055H1V8.19209ZM20.9226 8.19209H21V9.73055H20.9226V8.19209ZM12.5385 16.6536C12.5385 15.521 13.1502 14.4392 13.9012 13.5175C14.6675 12.577 15.6705 11.6923 16.6448 10.9394C17.6237 10.183 18.5988 9.54059 19.3269 9.08827C19.6917 8.86166 19.9963 8.68169 20.2106 8.55784C20.3178 8.4959 20.4025 8.44793 20.461 8.41513C20.4903 8.39872 20.513 8.38611 20.5287 8.37742C20.5366 8.37308 20.5427 8.36972 20.547 8.36737C20.5491 8.36619 20.5508 8.36526 20.552 8.36458C20.5527 8.36425 20.5532 8.36397 20.5535 8.36376C20.5537 8.36366 20.5539 8.36354 20.554 8.36349C20.5542 8.3634 20.5544 8.36332 20.9227 9.03863C21.291 9.71394 21.2911 9.71389 21.2912 9.71386C21.2911 9.71387 21.2912 9.71386 21.2911 9.71388C21.2911 9.71392 21.2909 9.71402 21.2906 9.71419C21.29 9.71452 21.2889 9.71511 21.2874 9.71594C21.2843 9.7176 21.2795 9.72025 21.273 9.72387C21.2599 9.73112 21.2398 9.74225 21.2133 9.75711C21.1603 9.78684 21.0814 9.83149 20.9804 9.88987C20.7782 10.0067 20.4879 10.1782 20.1387 10.3951C19.4391 10.8297 18.5104 11.4421 17.5855 12.1567C16.6561 12.8749 15.7554 13.6775 15.0939 14.4893C14.417 15.32 14.0769 16.0555 14.0769 16.6536H12.5385ZM20.9226 8.96132C20.6344 9.67453 20.6342 9.67444 20.634 9.67435C20.6339 9.6743 20.6336 9.67419 20.6334 9.6741C20.6329 9.67391 20.6323 9.67367 20.6316 9.67338C20.6302 9.67281 20.6284 9.67205 20.626 9.6711C20.6214 9.66921 20.6149 9.66656 20.6067 9.66316C20.5903 9.65637 20.5669 9.6466 20.5369 9.63387C20.4769 9.60844 20.3906 9.57122 20.2817 9.5226C20.0641 9.42542 19.7558 9.28243 19.3869 9.09673C18.651 8.72629 17.6645 8.18116 16.6731 7.48518C15.6857 6.79198 14.6665 5.93051 13.8881 4.92013C13.1088 3.90865 12.5384 2.70424 12.5384 1.34632H14.0769C14.0769 2.25744 14.4583 3.13943 15.1068 3.9812C15.7562 4.82407 16.6408 5.58273 17.5571 6.22602C18.4695 6.86652 19.3867 7.37425 20.0787 7.72255C20.4236 7.89622 20.7103 8.02907 20.9091 8.11788C21.0085 8.16226 21.0858 8.19558 21.1373 8.21743C21.1631 8.22836 21.1824 8.23641 21.1948 8.24154C21.201 8.24411 21.2055 8.24594 21.2082 8.24704C21.2095 8.24758 21.2104 8.24795 21.2109 8.24813C21.2111 8.24822 21.2112 8.24826 21.2112 8.24826C21.2112 8.24825 21.2111 8.24822 21.2111 8.24822C21.211 8.24817 21.2108 8.24811 20.9226 8.96132Z" fill="white"/>
</svg>
