<svg width="70" height="70" viewBox="0 0 70 70" fill="none" xmlns="http://www.w3.org/2000/svg">
<circle opacity="0.1" cx="35" cy="35" r="35" fill="white"/>
<path d="M30.1783 34.9429C27.085 36.6981 25 40.0537 25 43.8911V45.9905C25 48.2104 26.7945 50 28.982 50H41.3894C43.5941 50 45.3714 48.1932 45.3714 45.9905V43.8911C45.3714 40.0537 43.2864 36.6981 40.176 34.9429M36.9795 36.3538L38.8082 42.9446L35.185 47.1778L31.579 42.9446L33.3906 36.3538" stroke="white" stroke-width="1.3" stroke-linecap="round" stroke-linejoin="round"/>
<path d="M36.9232 25.0337C36.6422 24.356 35.9644 23.8766 35.1875 23.8766M35.1875 23.8766C32.6582 23.8766 32.6747 27.2324 35.1875 27.2324C37.7002 27.2324 37.7002 30.7039 35.1875 30.7039C34.4105 30.7039 33.7327 30.2245 33.4517 29.5467M35.1875 23.8766L35.1887 22.2897M35.1887 30.6873V32.2743M43.6001 27.4143C43.6001 32.0614 39.8329 35.8286 35.1858 35.8286C30.5387 35.8286 26.7715 32.0614 26.7715 27.4143C26.7715 22.7672 30.5387 19 35.1858 19C39.8329 19 43.6001 22.7672 43.6001 27.4143Z" stroke="white" stroke-width="1.3" stroke-linecap="round" stroke-linejoin="round"/>
</svg>
