<svg width="22" height="18" viewBox="0 0 22 18" fill="none" xmlns="http://www.w3.org/2000/svg">
<path d="M21 7.92308H21.7692V9.46154H21V7.92308ZM1 9.46154C0.575165 9.46154 0.23077 9.11714 0.23077 8.69231C0.23077 8.26747 0.575165 7.92308 1 7.92308V9.46154ZM7.92308 1V0.230769H9.46154V1H7.92308ZM1.44565 9.29031C1.07269 9.49373 0.605429 9.3563 0.402002 8.98333C0.198576 8.61037 0.336012 8.14311 0.708977 7.93969L1.44565 9.29031ZM9.4616 16.3073V17.0765H7.92314V16.3073H9.4616ZM21 9.46154H1.07737V7.92308H21V9.46154ZM1.07737 9.46154H1V7.92308H1.07737V9.46154ZM9.46154 1C9.46154 2.13263 8.84979 3.21441 8.0988 4.13608C7.33247 5.07659 6.3295 5.96136 5.35515 6.71426C4.37626 7.47066 3.4012 8.11304 2.67306 8.56535C2.30826 8.79196 2.00372 8.97193 1.78941 9.09578C1.68222 9.15773 1.5975 9.20569 1.53898 9.2385C1.50972 9.2549 1.487 9.26752 1.47129 9.2762C1.46344 9.28054 1.45733 9.2839 1.45304 9.28626C1.4509 9.28744 1.4492 9.28837 1.44797 9.28904C1.44735 9.28938 1.44685 9.28965 1.44646 9.28986C1.44627 9.28997 1.44606 9.29008 1.44597 9.29013C1.44579 9.29023 1.44565 9.29031 1.07731 8.615C0.708977 7.93969 0.708891 7.93973 0.708832 7.93976C0.708851 7.93975 0.708822 7.93977 0.70886 7.93975C0.708937 7.93971 0.709127 7.9396 0.709433 7.93944C0.710043 7.9391 0.711109 7.93852 0.712622 7.93769C0.715651 7.93603 0.720469 7.93337 0.727022 7.92975C0.740131 7.9225 0.760174 7.91138 0.786686 7.89651C0.839716 7.86679 0.918598 7.82214 1.01963 7.76375C1.22177 7.64694 1.51214 7.47538 1.86125 7.25851C2.56093 6.82388 3.48961 6.21155 4.41447 5.49689C5.34387 4.77873 6.24465 3.9761 6.90613 3.16428C7.58296 2.33362 7.92308 1.59814 7.92308 1H9.46154ZM1.07737 8.69231C1.36555 7.9791 1.36576 7.97918 1.366 7.97928C1.36612 7.97933 1.36638 7.97943 1.36662 7.97953C1.36709 7.97972 1.36768 7.97996 1.36838 7.98024C1.36978 7.98081 1.37165 7.98157 1.37397 7.98252C1.3786 7.98442 1.38505 7.98707 1.39326 7.99046C1.40968 7.99725 1.43312 8.00703 1.46313 8.01975C1.52313 8.04519 1.60943 8.08241 1.71828 8.13102C1.93586 8.2282 2.24417 8.37119 2.61309 8.5569C3.34898 8.92733 4.33546 9.47246 5.32685 10.1685C6.31427 10.8617 7.33345 11.7231 8.11188 12.7335C8.89117 13.745 9.4616 14.9494 9.4616 16.3073H7.92314C7.92314 15.3962 7.5417 14.5142 6.89317 13.6724C6.24379 12.8296 5.35922 12.0709 4.44289 11.4276C3.53054 10.7871 2.61327 10.2794 1.92135 9.93107C1.57635 9.75741 1.28975 9.62456 1.09089 9.53574C0.99151 9.49136 0.914206 9.45804 0.862661 9.43619C0.836893 9.42527 0.817577 9.41722 0.805174 9.41209C0.798973 9.40952 0.794502 9.40769 0.791821 9.40659C0.790478 9.40604 0.789583 9.40568 0.789145 9.4055C0.788923 9.40541 0.788816 9.40537 0.788824 9.40537C0.78883 9.40537 0.788921 9.40541 0.788923 9.40541C0.789043 9.40546 0.789194 9.40552 1.07737 8.69231Z" fill="black"/>
</svg>
