<svg width="21" height="20" viewBox="0 0 21 20" fill="none" xmlns="http://www.w3.org/2000/svg">
<g clip-path="url(#clip0_241_849)">
<path d="M20.1641 10C20.1641 4.47715 15.6869 0 10.1641 0C4.64121 0 0.164062 4.47715 0.164062 10C0.164062 14.9912 3.8209 19.1283 8.60156 19.8785V12.8906H6.0625V10H8.60156V7.79688C8.60156 5.29063 10.0945 3.90625 12.3787 3.90625C13.4725 3.90625 14.6172 4.10156 14.6172 4.10156V6.5625H13.3562C12.1141 6.5625 11.7266 7.3334 11.7266 8.125V10H14.5L14.0566 12.8906H11.7266V19.8785C16.5072 19.1283 20.1641 14.9912 20.1641 10Z" fill="#0C0C1D"/>
<path d="M20.1641 10C20.1641 4.47715 15.6869 0 10.1641 0C4.64121 0 0.164062 4.47715 0.164062 10C0.164062 14.9912 3.8209 19.1283 8.60156 19.8785V12.8906H6.0625V10H8.60156V7.79688C8.60156 5.29063 10.0945 3.90625 12.3787 3.90625C13.4725 3.90625 14.6172 4.10156 14.6172 4.10156V6.5625H13.3562C12.1141 6.5625 11.7266 7.3334 11.7266 8.125V10H14.5L14.0566 12.8906H11.7266V19.8785C16.5072 19.1283 20.1641 14.9912 20.1641 10Z" fill="black" fill-opacity="0.2"/>
</g>
<defs>
<clipPath id="clip0_241_849">
<rect width="20" height="20" fill="white" transform="translate(0.164062)"/>
</clipPath>
</defs>
</svg>
