<svg width="154" height="34" viewBox="0 0 154 34" fill="none" xmlns="http://www.w3.org/2000/svg">
<path d="M20.5187 23.1318C19.8882 24.2345 19.3308 25.1748 18.8234 26.1408C18.7504 26.2801 18.8884 26.5697 18.9925 26.7537C20.1331 28.7763 21.2858 30.7908 22.4331 32.8094C22.5305 32.9799 22.6116 33.1598 22.7456 33.4277H12.8989C13.1776 32.9095 13.3954 32.482 13.6349 32.0666C14.6496 30.3105 15.667 28.5558 16.6912 26.8051C16.8847 26.4749 16.9712 26.1908 16.7507 25.8106C15.0717 22.9032 13.4144 19.9822 11.7476 17.068C11.6853 16.9584 11.5811 16.8731 11.385 16.6472C8.4518 21.7667 5.56328 26.8064 2.58276 32.0085H9.83315C9.57068 33.2653 9.29468 33.4967 8.16227 33.4967C5.74999 33.4967 3.3377 33.4967 0.925409 33.4967C0.684586 33.4967 0.445116 33.4967 0 33.4967C3.85317 26.7996 7.61433 20.2636 11.4594 13.5814C13.62 17.3467 15.6954 20.9644 17.875 24.7621C18.5177 23.6243 19.0832 22.6664 19.5865 21.6774C19.6609 21.5313 19.4701 21.2174 19.3511 21.0104C17.4326 17.6687 15.5087 14.331 13.5767 10.996C13.3738 10.6456 13.2683 10.3588 13.5077 9.94881C15.3166 6.856 17.0971 3.74695 18.8884 0.643308C18.9655 0.509368 19.0588 0.384896 19.2104 0.15625C19.4214 0.517484 19.5973 0.81513 19.7705 1.11548C21.8621 4.74812 23.9429 8.38617 26.0576 12.0053C26.3823 12.56 26.3945 12.9889 26.0657 13.5449C24.6059 16.0059 23.1961 18.4967 21.7417 20.9604C21.4644 21.4298 21.4779 21.7789 21.7539 22.2497C23.5506 25.3236 25.304 28.4218 27.0993 31.4957C27.2428 31.7406 27.5959 32.0139 27.8556 32.0179C30.3356 32.0558 32.8155 32.0409 35.2954 32.0355C35.401 32.0355 35.5051 31.9868 35.7094 31.9368C35.5944 31.6824 35.516 31.4619 35.401 31.2616C32.8399 26.8078 30.2787 22.3539 27.7041 17.9068C27.512 17.574 27.4619 17.3074 27.6973 16.9841C27.9057 16.6973 28.0694 16.3793 28.3197 15.9613C31.675 21.8087 34.9734 27.5586 38.3396 33.425C37.9864 33.4548 37.7537 33.4926 37.521 33.4926C34.094 33.4967 30.667 33.4818 27.24 33.5075C26.6867 33.5116 26.3877 33.3181 26.1252 32.8513C24.4165 29.8302 22.6847 26.8227 20.9584 23.8124C20.8609 23.6419 20.7446 23.4809 20.5173 23.1305L20.5187 23.1318ZM20.5931 20.0498C20.7108 19.8307 20.7527 19.7495 20.7974 19.671C22.0569 17.4833 23.3246 15.301 24.5599 13.1012C24.6627 12.9185 24.6248 12.5654 24.5152 12.3679C22.8998 9.50234 21.2628 6.649 19.6271 3.79565C19.5215 3.6103 19.3835 3.44389 19.2144 3.20036C19.0494 3.41142 18.9262 3.53589 18.841 3.68336C17.6748 5.71547 16.5288 7.75976 15.341 9.77834C15.0609 10.2546 15.0853 10.6199 15.3531 11.0799C16.9618 13.8453 18.5447 16.6256 20.1412 19.3991C20.2372 19.5668 20.3617 19.717 20.5944 20.0498H20.5931ZM17.8588 27.767C17.0105 29.2376 16.2664 30.5283 15.4627 31.9205H20.2291C19.4295 30.5189 18.6976 29.2376 17.8588 27.767Z" fill="#A0652D"/>
<path d="M63.6614 9.24129C63.6614 6.55976 63.6587 3.8796 63.6627 1.19808C63.6627 0.403901 63.7709 0.288903 64.557 0.294314C66.8989 0.311903 69.2612 0.157666 71.5774 0.410665C75.2087 0.808429 77.7481 2.89601 78.9387 6.33653C80.1077 9.71482 79.419 12.836 76.9499 15.4729C75.1424 17.4036 72.8681 18.2857 70.2285 18.2667C68.3588 18.2532 66.489 18.2667 64.6192 18.2627C63.7534 18.2613 63.6627 18.1693 63.6614 17.2832C63.6587 14.6016 63.6614 11.9215 63.6614 9.23994V9.24129ZM67.7269 9.28864C67.7269 10.8188 67.7351 12.349 67.7215 13.8792C67.7175 14.2959 67.8365 14.5069 68.2952 14.488C69.1042 14.4528 69.9187 14.5015 70.7223 14.4298C73.1468 14.2106 75.0436 12.1393 75.1302 9.66611C75.2303 6.76 73.6163 4.5466 71.0403 4.16642C70.1798 4.03924 69.2896 4.12177 68.4156 4.06901C67.8825 4.03789 67.708 4.23677 67.7175 4.76577C67.7445 6.27294 67.7269 7.78147 67.7269 9.28864Z" fill="#4B1923"/>
<path d="M124.758 8.30331C124.741 8.71055 124.722 8.94731 124.72 9.18408C124.718 11.9102 124.72 14.6378 124.718 17.3639C124.718 18.1798 124.634 18.2582 123.83 18.2636C123.109 18.2691 122.388 18.2677 121.667 18.2636C120.736 18.2596 120.661 18.1879 120.66 17.2679C120.659 12.1524 120.66 7.03697 120.66 1.92151C120.66 1.60627 120.621 1.28427 120.671 0.977157C120.721 0.670041 120.837 0.136985 120.963 0.124808C121.342 0.0882791 121.841 0.141041 122.113 0.37104C123.006 1.12598 123.819 1.97427 124.663 2.78603C126.936 4.97238 129.209 7.15873 131.486 9.34102C131.611 9.46143 131.76 9.55613 132.01 9.74825C132.033 9.41002 132.061 9.18002 132.061 8.95002C132.064 6.35779 132.061 3.76691 132.065 1.17469C132.065 0.375099 132.152 0.295279 132.968 0.289867C133.689 0.285808 134.41 0.287161 135.131 0.289867C136.061 0.292573 136.142 0.368334 136.142 1.28427C136.145 4.41632 136.143 7.54973 136.143 10.6818C136.143 12.9574 136.158 15.2344 136.126 17.5101C136.122 17.8402 135.919 18.4192 135.752 18.4409C135.388 18.4882 134.88 18.3597 134.618 18.1081C133.012 16.5616 131.461 14.9571 129.886 13.3768C128.407 11.8913 126.924 10.4112 125.44 8.93108C125.259 8.74978 125.063 8.58202 124.757 8.30061L124.758 8.30331Z" fill="#4B1923"/>
<path d="M103.542 9.24648C103.542 6.56496 103.541 3.88344 103.542 1.20192C103.542 0.384741 103.629 0.294094 104.421 0.292741C107.712 0.288682 111.001 0.300858 114.291 0.283269C114.915 0.279211 115.21 0.460505 115.165 1.13427C115.119 1.82968 115.124 2.53185 115.164 3.22862C115.202 3.89697 114.9 4.09044 114.279 4.08367C112.297 4.06202 110.312 4.09855 108.33 4.06338C107.701 4.05255 107.484 4.25685 107.532 4.87514C107.576 5.4569 107.567 6.04814 107.534 6.63125C107.507 7.11425 107.709 7.25495 108.165 7.24954C109.764 7.23331 111.365 7.24143 112.964 7.24548C113.827 7.24819 113.916 7.3429 113.923 8.22772C113.927 8.85819 113.928 9.49001 113.923 10.1205C113.915 10.9228 113.817 11.0229 113.03 11.0256C111.43 11.0297 109.83 11.0445 108.231 11.0175C107.71 11.0094 107.501 11.1595 107.533 11.7034C107.574 12.4002 107.57 13.101 107.533 13.7978C107.505 14.3416 107.725 14.4945 108.243 14.4891C110.204 14.4675 112.164 14.4783 114.125 14.4824C115.103 14.4837 115.153 14.5392 115.154 15.5187C115.154 16.1952 115.141 16.8716 115.158 17.5467C115.17 18.0176 115.004 18.2638 114.501 18.2638C111.075 18.2584 107.651 18.257 104.225 18.2638C103.624 18.2638 103.534 17.9134 103.535 17.4236C103.543 14.6975 103.539 11.9699 103.539 9.24378L103.542 9.24648Z" fill="#4B1923"/>
<path d="M57.5838 18.2652C56.0333 18.6616 55.185 17.9459 54.8076 16.501C54.6155 15.7677 54.1609 15.5647 53.4127 15.5904C51.6336 15.65 49.8518 15.6229 48.0713 15.6013C47.6059 15.5958 47.2825 15.7014 47.1513 16.1803C47.1215 16.2872 47.058 16.3846 47.0133 16.4888C46.1231 18.4938 46.4085 18.253 44.233 18.2665C43.8271 18.2692 43.4213 18.2733 43.0154 18.2665C42.2401 18.2517 42.0967 18.023 42.4296 17.3005C43.4483 15.0912 44.4752 12.8846 45.4994 10.6779C47.0174 7.40786 48.534 4.13781 50.0561 0.869116C50.1684 0.62694 50.282 0.361765 50.4687 0.18453C50.8529 -0.180763 51.3468 0.014056 51.6255 0.612054C52.7592 3.04058 53.8916 5.4691 55.0213 7.90033C56.446 10.9661 57.8693 14.0318 59.2871 17.0989C59.7539 18.1069 59.647 18.2638 58.5309 18.2679C58.2156 18.2679 57.9004 18.2679 57.5838 18.2679V18.2652ZM52.8039 12.039C52.1626 10.6441 51.5619 9.33986 50.8841 7.86786C50.2157 9.3385 49.6231 10.6441 48.9899 12.039H52.8039Z" fill="#4B1923"/>
<path d="M90.7972 10.0066C91.3154 8.87287 91.7727 7.87982 92.2232 6.88406C93.1053 4.93312 94.001 2.9876 94.8533 1.02313C95.0833 0.49278 95.3837 0.251958 95.9722 0.28037C96.8273 0.319605 97.685 0.287133 98.5414 0.291191C99.4736 0.29525 99.5994 0.487368 99.2044 1.33566C97.6174 4.74777 96.025 8.15853 94.4366 11.5693C93.4666 13.6528 92.5154 15.7458 91.5156 17.8158C91.3736 18.1094 91.0015 18.476 90.7377 18.4747C90.4766 18.4733 90.1113 18.0986 89.9733 17.8023C87.4203 12.354 84.893 6.89488 82.3657 1.43443C81.9192 0.468428 82.0383 0.292547 83.0936 0.289841C83.9053 0.288488 84.7198 0.32772 85.5275 0.277661C86.1539 0.238426 86.4489 0.509016 86.691 1.05425C87.9141 3.81424 89.1723 6.558 90.4211 9.30581C90.5104 9.50064 90.624 9.68464 90.7972 10.0053V10.0066Z" fill="#4B1923"/>
<path d="M148.96 11.1538C148.96 13.2482 148.941 15.3439 148.971 17.4382C148.979 18.0565 148.766 18.2946 148.154 18.2716C147.366 18.2419 146.577 18.2703 145.789 18.2621C145.019 18.2554 144.905 18.1404 144.904 17.3408C144.9 13.2184 144.902 9.09734 144.901 4.97494C144.901 4.37695 144.606 4.07705 144.016 4.07524C143.227 4.07389 142.439 4.0536 141.651 4.08201C141.03 4.10501 140.727 3.88313 140.753 3.22695C140.781 2.50719 140.773 1.78472 140.756 1.06496C140.744 0.534604 140.944 0.28296 141.505 0.285666C145.131 0.297843 148.758 0.297843 152.384 0.285666C152.969 0.284313 153.195 0.51837 153.172 1.09607C153.143 1.79284 153.17 2.4923 153.163 3.19042C153.155 3.96971 153.055 4.06713 152.248 4.07389C151.369 4.08066 150.49 4.09689 149.612 4.06848C149.113 4.05224 148.945 4.23353 148.95 4.73412C148.972 6.87312 148.96 9.01346 148.959 11.1538H148.96Z" fill="#4B1923"/>
<path d="M85.2024 26.9213C85.2024 28.0375 85.2024 29.155 85.2024 30.2712C85.2024 31.1723 85.1903 32.0747 85.2065 32.9757C85.2133 33.3505 85.0766 33.4993 84.6978 33.502C84.3054 33.5047 84.1241 33.3802 84.1255 32.9595C84.1363 30.4349 84.1255 27.9103 84.1431 25.3857C84.1431 25.2044 84.3338 24.8608 84.4015 24.8689C84.7492 24.9136 85.2308 24.9393 85.4 25.1679C86.4823 26.6358 87.4957 28.1552 88.528 29.6597C88.9541 30.282 89.3722 30.9098 89.9485 31.4915C89.9255 31.1276 89.8836 30.765 89.8809 30.4011C89.8728 28.7559 89.8877 27.1094 89.8701 25.4642C89.866 25.0245 89.9661 24.8094 90.4667 24.8067C91.0187 24.8026 91.0119 25.1097 91.0106 25.5021C91.0038 27.9144 91.0146 30.3253 90.9957 32.7376C90.9944 32.9852 90.8117 33.4492 90.7454 33.4438C90.3761 33.4127 89.8674 33.3829 89.6793 33.1408C88.8256 32.0381 88.0585 30.8665 87.2684 29.7138C86.623 28.7721 85.9898 27.8224 85.3513 26.8767L85.2024 26.9213Z" fill="#A0652D"/>
<path d="M134.12 31.4954C134.12 30.6484 134.12 29.8002 134.12 28.9532C134.12 27.7816 134.124 26.6086 134.117 25.4369C134.115 25.0906 134.14 24.8227 134.605 24.8119C135.084 24.8011 135.16 25.0419 135.159 25.441C135.149 27.8749 135.163 30.3102 135.142 32.7441C135.14 32.9904 135.021 33.3909 134.861 33.4477C134.486 33.5803 134.086 33.5356 133.803 33.1094C132.983 31.8688 132.128 30.6512 131.289 29.424C130.711 28.5785 130.136 27.7302 129.482 26.7655C129.429 27.0456 129.377 27.1876 129.379 27.3297C129.388 29.1548 129.4 30.9799 129.421 32.805C129.425 33.1987 129.411 33.5018 128.869 33.5099C128.272 33.5194 128.296 33.169 128.298 32.7617C128.303 30.3724 128.292 27.9832 128.313 25.5939C128.314 25.3422 128.495 24.8714 128.559 24.8782C128.927 24.912 129.441 24.9418 129.621 25.1839C130.615 26.5206 131.53 27.9155 132.468 29.2942C132.972 30.0369 133.469 30.7851 133.968 31.5306C134.019 31.5197 134.071 31.5076 134.121 31.4967L134.12 31.4954Z" fill="#A0652D"/>
<path d="M53 31.4088C53 30.7648 53 30.1195 53 29.4755C53 28.1455 53.0081 26.8169 52.9959 25.487C52.9918 25.0757 53.0392 24.7956 53.5668 24.8078C54.0701 24.8186 54.0877 25.1068 54.0877 25.4748C54.0837 27.8857 54.0931 30.2967 54.0755 32.7076C54.0742 32.9633 53.9754 33.3841 53.8198 33.4396C53.4261 33.5789 52.9837 33.5721 52.6847 33.127C52.0583 32.1921 51.4062 31.2749 50.7717 30.3454C49.987 29.1967 49.209 28.044 48.3147 26.7276C48.2755 27.0699 48.239 27.2458 48.239 27.4203C48.2349 29.2225 48.2349 31.0246 48.2376 32.828C48.2376 33.1838 48.2511 33.4964 47.7357 33.5072C47.1986 33.518 47.1729 33.2177 47.1729 32.8159C47.1796 30.4279 47.1674 28.04 47.1877 25.6507C47.1904 25.3788 47.2919 24.9377 47.461 24.8728C47.8574 24.7212 48.2755 24.7956 48.5704 25.2408C49.4147 26.5179 50.2968 27.7707 51.1627 29.033C51.7187 29.8434 52.2734 30.6566 52.8281 31.4683C52.8863 31.4494 52.9431 31.4304 53.0013 31.4102L53 31.4088Z" fill="#A0652D"/>
<path d="M120.672 33.6535C118.161 33.6481 116.202 31.6417 116.231 29.1063C116.258 26.6277 118.195 24.693 120.662 24.6822C123.166 24.67 125.121 26.6182 125.124 29.1293C125.126 31.6918 123.192 33.6589 120.672 33.6535ZM120.685 32.6293C122.545 32.6293 123.945 31.1398 123.953 29.155C123.961 27.2081 122.512 25.6793 120.67 25.6888C118.854 25.6982 117.389 27.2176 117.377 29.1009C117.363 31.0762 118.82 32.6293 120.686 32.628L120.685 32.6293Z" fill="#A0652D"/>
<path d="M80.9231 33.4235C80.2263 33.6075 79.7352 33.5277 79.4213 32.8012C79.0844 32.0192 78.6272 31.29 78.2213 30.5377C77.9615 30.0574 76.5396 29.7205 76.1486 30.0791C76.0282 30.19 75.997 30.443 75.9943 30.6324C75.9795 31.5497 75.9876 32.4684 75.9876 33.3667C74.9634 33.6495 74.8376 33.5629 74.8376 32.6334C74.8376 30.2482 74.8497 27.8616 74.8267 25.4764C74.8227 24.9826 74.9566 24.7823 75.4707 24.8107C76.3907 24.8594 77.3162 24.8297 78.2348 24.8919C79.4741 24.9758 80.1641 25.5183 80.4387 26.5371C80.7634 27.7412 80.4387 28.806 79.4619 29.4473C79.0587 29.7124 79.1074 29.9262 79.2955 30.2658C79.8407 31.2494 80.3684 32.2424 80.9001 33.2328C80.919 33.268 80.9109 33.3194 80.9217 33.4222L80.9231 33.4235ZM77.2864 25.8106V25.793C77.1295 25.793 76.9698 25.8106 76.8156 25.7903C76.1783 25.705 75.9226 25.9499 75.9754 26.6115C76.0268 27.2582 75.9551 27.9144 76.0092 28.5597C76.0255 28.7437 76.2825 29.0346 76.453 29.0536C76.9833 29.1131 77.5313 29.1117 78.0616 29.0468C78.9383 28.9413 79.4606 28.254 79.4308 27.3407C79.4024 26.4708 78.8423 25.885 77.9561 25.8146C77.7329 25.797 77.5083 25.8119 77.2837 25.8119L77.2864 25.8106Z" fill="#A0652D"/>
<path d="M145.243 33.3826C144.316 33.6059 144.216 33.549 143.94 32.767C143.195 30.6538 143.722 30.9988 141.455 30.992C139.7 30.9866 140.07 30.7119 139.438 32.3909C139.39 32.5181 139.347 32.6453 139.304 32.7738C139.026 33.5815 138.994 33.5991 137.994 33.3975C138.04 33.2095 138.07 33.0187 138.133 32.8401C139.012 30.4048 139.895 27.9709 140.774 25.537C140.926 25.1189 141.073 24.7942 141.652 24.7969C142.241 24.801 142.351 25.1419 142.498 25.5613C143.346 27.9614 144.208 30.3575 145.062 32.7562C145.135 32.9605 145.184 33.1729 145.245 33.3826H145.243ZM141.74 26.2757C141.674 26.2757 141.608 26.2757 141.543 26.277C141.142 27.4297 140.734 28.5797 140.363 29.7432C140.343 29.8068 140.63 30.0612 140.787 30.0733C141.324 30.1166 141.866 30.0801 142.406 30.0936C142.881 30.1058 143.004 29.9151 142.846 29.4713C142.543 28.6244 142.261 27.7706 141.97 26.9197C141.896 26.7045 141.819 26.4894 141.742 26.2743L141.74 26.2757Z" fill="#A0652D"/>
<path d="M93.8008 33.4073C93.8779 33.1435 93.9307 32.9284 94.0051 32.7214C94.875 30.282 95.7517 27.8467 96.6149 25.406C96.7488 25.0286 96.9234 24.8026 97.3793 24.8067C97.8217 24.8094 98.0828 24.9285 98.2398 25.3709C99.1111 27.8305 100.007 30.2807 100.887 32.7363C100.961 32.9392 100.99 33.157 101.04 33.3654C100.143 33.6211 99.9972 33.544 99.7361 32.7999C98.9582 30.5783 99.4452 31.0059 97.2765 30.9964C95.4987 30.9883 95.8275 30.6379 95.1551 32.6118C94.825 33.5791 94.8331 33.5818 93.8008 33.4087V33.4073ZM98.808 30.0791C98.3453 28.7086 97.9326 27.4869 97.5187 26.2638C97.4551 26.2638 97.3915 26.2665 97.3279 26.2679C96.9274 27.4165 96.5202 28.5638 96.1427 29.7192C96.1157 29.8017 96.3091 30.0588 96.4079 30.0629C97.1588 30.0926 97.911 30.0791 98.808 30.0791Z" fill="#A0652D"/>
<path d="M66.5256 29.1322C66.5256 27.8943 66.5364 26.655 66.5202 25.4171C66.5148 24.9909 66.6541 24.8069 67.1019 24.8137C68.3859 24.8312 69.6685 24.8231 70.9524 24.8177C71.2622 24.8177 71.4773 24.8678 71.4638 25.2574C71.4516 25.6092 71.3474 25.8027 70.9551 25.7959C70.1 25.7824 69.2423 25.827 68.3886 25.7824C67.75 25.7485 67.5376 25.9988 67.5944 26.6063C67.6309 27.0081 67.6377 27.4208 67.5944 27.8212C67.5186 28.5261 67.8339 28.7399 68.4941 28.6898C69.0542 28.6479 69.6198 28.6898 70.1826 28.6804C70.5316 28.6736 70.809 28.7832 70.698 29.1661C70.6466 29.3419 70.3693 29.5544 70.1785 29.5706C69.5521 29.622 68.9189 29.6085 68.2885 29.5855C67.8122 29.5692 67.5714 29.7221 67.5958 30.2389C67.6228 30.8004 67.6215 31.3659 67.5958 31.9274C67.5728 32.4415 67.8203 32.5944 68.2912 32.5876C69.2369 32.5728 70.1839 32.5633 71.1283 32.6052C71.3082 32.6133 71.5815 32.842 71.6302 33.0192C71.7398 33.4129 71.4449 33.4995 71.1066 33.4982C69.778 33.4928 68.4495 33.4806 67.1209 33.5036C66.623 33.5117 66.5148 33.2858 66.5215 32.8474C66.5391 31.6095 66.5283 30.3702 66.5283 29.1322H66.5256Z" fill="#A0652D"/>
<path d="M60.8172 29.6559C60.8172 30.7382 60.8091 31.8192 60.8212 32.9002C60.8253 33.2669 60.7604 33.4982 60.3139 33.5023C59.8593 33.5063 59.7321 33.3061 59.7348 32.888C59.7456 30.8153 59.7172 28.7413 59.7511 26.6686C59.7619 25.9962 59.563 25.7188 58.8676 25.7824C58.3088 25.8338 57.7379 25.8284 57.1805 25.7675C57.01 25.7486 56.7895 25.4848 56.7313 25.2913C56.6298 24.9544 56.8517 24.8164 57.1886 24.8178C59.2396 24.8232 61.2893 24.8245 63.3404 24.8164C63.7165 24.8151 63.9343 24.9788 63.8261 25.3346C63.7706 25.5186 63.5203 25.7554 63.3404 25.7716C62.737 25.8271 62.1241 25.8176 61.5166 25.7878C60.9998 25.7621 60.7874 25.9299 60.8064 26.4792C60.8429 27.5372 60.8172 28.5965 60.8158 29.6559H60.8172Z" fill="#A0652D"/>
<path d="M109.204 24.9149C109.36 25.7524 109.335 25.7889 108.545 25.793C108.049 25.7957 107.55 25.8255 107.058 25.7862C106.449 25.7375 106.284 26.0027 106.291 26.575C106.314 28.6477 106.303 30.7204 106.296 32.7931C106.296 33.0921 106.38 33.4466 105.89 33.4966C105.384 33.548 105.219 33.3464 105.225 32.8472C105.243 30.7975 105.234 28.7465 105.231 26.6968C105.23 25.8065 105.218 25.7984 104.323 25.7957C103.761 25.793 103.192 25.8309 102.636 25.7686C102.469 25.7497 102.241 25.4696 102.212 25.2829C102.191 25.1544 102.462 24.8459 102.604 24.8432C104.743 24.8202 106.883 24.8338 109.024 24.8432C109.086 24.8432 109.147 24.8919 109.205 24.9163L109.204 24.9149Z" fill="#A0652D"/>
<path d="M149.158 28.6787C149.158 29.7137 149.192 30.7514 149.146 31.785C149.118 32.4263 149.374 32.6157 149.973 32.5914C150.805 32.5575 151.638 32.5846 152.472 32.5832C152.801 32.5832 153.112 32.5738 153.102 33.0568C153.094 33.4978 152.81 33.4951 152.506 33.4951C151.223 33.4951 149.939 33.4829 148.657 33.5019C148.203 33.5086 148.019 33.3706 148.022 32.8863C148.041 30.3874 148.037 27.8885 148.025 25.3897C148.023 25.0041 148.113 24.8065 148.546 24.8106C148.949 24.8147 149.177 24.8931 149.167 25.3694C149.142 26.472 149.158 27.576 149.158 28.6787Z" fill="#A0652D"/>
<path d="M43.3953 29.2213C43.3953 30.4362 43.3872 31.6512 43.3994 32.8647C43.4034 33.253 43.348 33.5047 42.8609 33.5047C42.3779 33.5047 42.317 33.2611 42.3184 32.8688C42.3279 30.3943 42.3265 27.9198 42.3184 25.4452C42.317 25.0556 42.3725 24.808 42.8582 24.8066C43.3426 24.8053 43.4048 25.0475 43.4007 25.4412C43.3872 26.7008 43.3953 27.9603 43.3953 29.2199V29.2213Z" fill="#A0652D"/>
<path d="M111.977 29.1523C111.977 27.9117 111.987 26.6724 111.972 25.4318C111.968 25.0232 112.068 24.8026 112.536 24.8108C112.974 24.8189 113.057 25.0326 113.056 25.4061C113.047 27.909 113.047 30.4119 113.056 32.9149C113.056 33.295 112.958 33.4966 112.527 33.5047C112.049 33.5142 111.968 33.272 111.972 32.8729C111.984 31.6323 111.976 30.393 111.976 29.1523H111.977Z" fill="#A0652D"/>
</svg>
