<svg width="21" height="20" viewBox="0 0 21 20" fill="none" xmlns="http://www.w3.org/2000/svg">
<g clip-path="url(#clip0_241_851)">
<path d="M10.3281 1.80078C13 1.80078 13.3164 1.8125 14.3672 1.85937C15.3438 1.90234 15.8711 2.06641 16.2227 2.20313C16.6875 2.38281 17.0234 2.60156 17.3711 2.94922C17.7227 3.30078 17.9375 3.63281 18.1172 4.09766C18.2539 4.44922 18.418 4.98047 18.4609 5.95312C18.5078 7.00781 18.5195 7.32422 18.5195 9.99219C18.5195 12.6641 18.5078 12.9805 18.4609 14.0313C18.418 15.0078 18.2539 15.5352 18.1172 15.8867C17.9375 16.3516 17.7188 16.6875 17.3711 17.0352C17.0195 17.3867 16.6875 17.6016 16.2227 17.7813C15.8711 17.918 15.3398 18.082 14.3672 18.125C13.3125 18.1719 12.9961 18.1836 10.3281 18.1836C7.65625 18.1836 7.33985 18.1719 6.28906 18.125C5.3125 18.082 4.78516 17.918 4.43359 17.7813C3.96875 17.6016 3.63281 17.3828 3.28516 17.0352C2.93359 16.6836 2.71875 16.3516 2.53906 15.8867C2.40234 15.5352 2.23828 15.0039 2.19531 14.0313C2.14844 12.9766 2.13672 12.6602 2.13672 9.99219C2.13672 7.32031 2.14844 7.00391 2.19531 5.95312C2.23828 4.97656 2.40234 4.44922 2.53906 4.09766C2.71875 3.63281 2.9375 3.29688 3.28516 2.94922C3.63672 2.59766 3.96875 2.38281 4.43359 2.20313C4.78516 2.06641 5.31641 1.90234 6.28906 1.85937C7.33985 1.8125 7.65625 1.80078 10.3281 1.80078ZM10.3281 0C7.61328 0 7.27344 0.0117187 6.20703 0.0585938C5.14453 0.105469 4.41406 0.277344 3.78125 0.523438C3.12109 0.78125 2.5625 1.12109 2.00781 1.67969C1.44922 2.23438 1.10938 2.79297 0.851563 3.44922C0.605469 4.08594 0.433594 4.8125 0.386719 5.875C0.339844 6.94531 0.328125 7.28516 0.328125 10C0.328125 12.7148 0.339844 13.0547 0.386719 14.1211C0.433594 15.1836 0.605469 15.9141 0.851563 16.5469C1.10938 17.207 1.44922 17.7656 2.00781 18.3203C2.5625 18.875 3.12109 19.2188 3.77734 19.4727C4.41406 19.7188 5.14063 19.8906 6.20313 19.9375C7.26953 19.9844 7.60938 19.9961 10.3242 19.9961C13.0391 19.9961 13.3789 19.9844 14.4453 19.9375C15.5078 19.8906 16.2383 19.7188 16.8711 19.4727C17.5273 19.2188 18.0859 18.875 18.6406 18.3203C19.1953 17.7656 19.5391 17.207 19.793 16.5508C20.0391 15.9141 20.2109 15.1875 20.2578 14.125C20.3047 13.0586 20.3164 12.7188 20.3164 10.0039C20.3164 7.28906 20.3047 6.94922 20.2578 5.88281C20.2109 4.82031 20.0391 4.08984 19.793 3.45703C19.5469 2.79297 19.207 2.23438 18.6484 1.67969C18.0938 1.125 17.5352 0.78125 16.8789 0.527344C16.2422 0.28125 15.5156 0.109375 14.4531 0.0625C13.3828 0.0117188 13.043 0 10.3281 0Z" fill="#0C0C1D"/>
<path d="M10.3281 1.80078C13 1.80078 13.3164 1.8125 14.3672 1.85937C15.3438 1.90234 15.8711 2.06641 16.2227 2.20313C16.6875 2.38281 17.0234 2.60156 17.3711 2.94922C17.7227 3.30078 17.9375 3.63281 18.1172 4.09766C18.2539 4.44922 18.418 4.98047 18.4609 5.95312C18.5078 7.00781 18.5195 7.32422 18.5195 9.99219C18.5195 12.6641 18.5078 12.9805 18.4609 14.0313C18.418 15.0078 18.2539 15.5352 18.1172 15.8867C17.9375 16.3516 17.7188 16.6875 17.3711 17.0352C17.0195 17.3867 16.6875 17.6016 16.2227 17.7813C15.8711 17.918 15.3398 18.082 14.3672 18.125C13.3125 18.1719 12.9961 18.1836 10.3281 18.1836C7.65625 18.1836 7.33985 18.1719 6.28906 18.125C5.3125 18.082 4.78516 17.918 4.43359 17.7813C3.96875 17.6016 3.63281 17.3828 3.28516 17.0352C2.93359 16.6836 2.71875 16.3516 2.53906 15.8867C2.40234 15.5352 2.23828 15.0039 2.19531 14.0313C2.14844 12.9766 2.13672 12.6602 2.13672 9.99219C2.13672 7.32031 2.14844 7.00391 2.19531 5.95312C2.23828 4.97656 2.40234 4.44922 2.53906 4.09766C2.71875 3.63281 2.9375 3.29688 3.28516 2.94922C3.63672 2.59766 3.96875 2.38281 4.43359 2.20313C4.78516 2.06641 5.31641 1.90234 6.28906 1.85937C7.33985 1.8125 7.65625 1.80078 10.3281 1.80078ZM10.3281 0C7.61328 0 7.27344 0.0117187 6.20703 0.0585938C5.14453 0.105469 4.41406 0.277344 3.78125 0.523438C3.12109 0.78125 2.5625 1.12109 2.00781 1.67969C1.44922 2.23438 1.10938 2.79297 0.851563 3.44922C0.605469 4.08594 0.433594 4.8125 0.386719 5.875C0.339844 6.94531 0.328125 7.28516 0.328125 10C0.328125 12.7148 0.339844 13.0547 0.386719 14.1211C0.433594 15.1836 0.605469 15.9141 0.851563 16.5469C1.10938 17.207 1.44922 17.7656 2.00781 18.3203C2.5625 18.875 3.12109 19.2188 3.77734 19.4727C4.41406 19.7188 5.14063 19.8906 6.20313 19.9375C7.26953 19.9844 7.60938 19.9961 10.3242 19.9961C13.0391 19.9961 13.3789 19.9844 14.4453 19.9375C15.5078 19.8906 16.2383 19.7188 16.8711 19.4727C17.5273 19.2188 18.0859 18.875 18.6406 18.3203C19.1953 17.7656 19.5391 17.207 19.793 16.5508C20.0391 15.9141 20.2109 15.1875 20.2578 14.125C20.3047 13.0586 20.3164 12.7188 20.3164 10.0039C20.3164 7.28906 20.3047 6.94922 20.2578 5.88281C20.2109 4.82031 20.0391 4.08984 19.793 3.45703C19.5469 2.79297 19.207 2.23438 18.6484 1.67969C18.0938 1.125 17.5352 0.78125 16.8789 0.527344C16.2422 0.28125 15.5156 0.109375 14.4531 0.0625C13.3828 0.0117188 13.043 0 10.3281 0Z" fill="black" fill-opacity="0.2"/>
<path d="M10.3286 4.86328C7.49268 4.86328 5.19189 7.16406 5.19189 10C5.19189 12.8359 7.49268 15.1367 10.3286 15.1367C13.1646 15.1367 15.4653 12.8359 15.4653 10C15.4653 7.16406 13.1646 4.86328 10.3286 4.86328ZM10.3286 13.332C8.48877 13.332 6.99658 11.8398 6.99658 10C6.99658 8.16016 8.48877 6.66797 10.3286 6.66797C12.1685 6.66797 13.6606 8.16016 13.6606 10C13.6606 11.8398 12.1685 13.332 10.3286 13.332Z" fill="#0C0C1D"/>
<path d="M10.3286 4.86328C7.49268 4.86328 5.19189 7.16406 5.19189 10C5.19189 12.8359 7.49268 15.1367 10.3286 15.1367C13.1646 15.1367 15.4653 12.8359 15.4653 10C15.4653 7.16406 13.1646 4.86328 10.3286 4.86328ZM10.3286 13.332C8.48877 13.332 6.99658 11.8398 6.99658 10C6.99658 8.16016 8.48877 6.66797 10.3286 6.66797C12.1685 6.66797 13.6606 8.16016 13.6606 10C13.6606 11.8398 12.1685 13.332 10.3286 13.332Z" fill="black" fill-opacity="0.2"/>
<path d="M16.8672 4.66016C16.8672 5.32422 16.3281 5.85938 15.668 5.85938C15.0039 5.85938 14.4688 5.32031 14.4688 4.66016C14.4688 3.99609 15.0078 3.46094 15.668 3.46094C16.3281 3.46094 16.8672 4 16.8672 4.66016Z" fill="#0C0C1D"/>
<path d="M16.8672 4.66016C16.8672 5.32422 16.3281 5.85938 15.668 5.85938C15.0039 5.85938 14.4688 5.32031 14.4688 4.66016C14.4688 3.99609 15.0078 3.46094 15.668 3.46094C16.3281 3.46094 16.8672 4 16.8672 4.66016Z" fill="black" fill-opacity="0.2"/>
</g>
<defs>
<clipPath id="clip0_241_851">
<rect width="20" height="20" fill="white" transform="translate(0.328125)"/>
</clipPath>
</defs>
</svg>
