<svg width="21" height="20" viewBox="0 0 21 20" fill="none" xmlns="http://www.w3.org/2000/svg">
<g clip-path="url(#clip0_241_856)">
<path d="M4.78665 2.08333C4.78665 3.23417 3.9002 4.16667 2.8061 4.16667C1.712 4.16667 0.825543 3.23417 0.825543 2.08333C0.825543 0.933333 1.712 0 2.8061 0C3.9002 0 4.78665 0.933333 4.78665 2.08333ZM4.80263 5.83333H0.80957V19.1667H4.80263V5.83333ZM11.1771 5.83333H7.20964V19.1667H11.1779V12.1675C11.1779 8.27583 15.9928 7.9575 15.9928 12.1675V19.1667H19.9762V10.7242C19.9762 4.1575 12.851 4.39667 11.1771 7.62917V5.83333Z" fill="#0C0C1D"/>
<path d="M4.78665 2.08333C4.78665 3.23417 3.9002 4.16667 2.8061 4.16667C1.712 4.16667 0.825543 3.23417 0.825543 2.08333C0.825543 0.933333 1.712 0 2.8061 0C3.9002 0 4.78665 0.933333 4.78665 2.08333ZM4.80263 5.83333H0.80957V19.1667H4.80263V5.83333ZM11.1771 5.83333H7.20964V19.1667H11.1779V12.1675C11.1779 8.27583 15.9928 7.9575 15.9928 12.1675V19.1667H19.9762V10.7242C19.9762 4.1575 12.851 4.39667 11.1771 7.62917V5.83333Z" fill="black" fill-opacity="0.2"/>
</g>
<defs>
<clipPath id="clip0_241_856">
<rect width="20" height="20" fill="white" transform="translate(0.492188)"/>
</clipPath>
</defs>
</svg>
