<svg width="56" height="56" viewBox="0 0 56 56" fill="none" xmlns="http://www.w3.org/2000/svg">
<rect x="55.5" y="54.8071" width="55" height="54.3073" rx="27.1537" transform="rotate(-180 55.5 54.8071)" stroke="white" stroke-opacity="0.13"/>
<path d="M18 26.9231H17.2308V28.4615H18V26.9231ZM38 28.4615C38.4248 28.4615 38.7692 28.1171 38.7692 27.6923C38.7692 27.2675 38.4248 26.9231 38 26.9231V28.4615ZM31.0769 20V19.2308H29.5385V20H31.0769ZM37.5544 28.2903C37.9273 28.4937 38.3946 28.3563 38.598 27.9833C38.8014 27.6104 38.664 27.1431 38.291 26.9397L37.5544 28.2903ZM29.5384 35.3073V36.0765H31.0769V35.3073H29.5384ZM18 28.4615H37.9226V26.9231H18V28.4615ZM37.9226 28.4615H38V26.9231H37.9226V28.4615ZM29.5385 20C29.5385 21.1326 30.1502 22.2144 30.9012 23.1361C31.6675 24.0766 32.6705 24.9614 33.6448 25.7143C34.6237 26.4707 35.5988 27.113 36.3269 27.5654C36.6917 27.792 36.9963 27.9719 37.2106 28.0958C37.3178 28.1577 37.4025 28.2057 37.461 28.2385C37.4903 28.2549 37.513 28.2675 37.5287 28.2762C37.5366 28.2805 37.5427 28.2839 37.547 28.2863C37.5491 28.2874 37.5508 28.2884 37.552 28.289C37.5527 28.2894 37.5532 28.2897 37.5535 28.2899C37.5537 28.29 37.5539 28.2901 37.554 28.2901C37.5542 28.2902 37.5544 28.2903 37.9227 27.615C38.291 26.9397 38.2911 26.9397 38.2912 26.9398C38.2911 26.9398 38.2912 26.9398 38.2911 26.9397C38.2911 26.9397 38.2909 26.9396 38.2906 26.9394C38.29 26.9391 38.2889 26.9385 38.2874 26.9377C38.2843 26.936 38.2795 26.9334 38.273 26.9298C38.2599 26.9225 38.2398 26.9114 38.2133 26.8965C38.1603 26.8668 38.0814 26.8221 37.9804 26.7638C37.7782 26.6469 37.4879 26.4754 37.1387 26.2585C36.4391 25.8239 35.5104 25.2115 34.5855 24.4969C33.6561 23.7787 32.7554 22.9761 32.0939 22.1643C31.417 21.3336 31.0769 20.5981 31.0769 20H29.5385ZM37.9226 27.6923C37.6344 26.9791 37.6342 26.9792 37.634 26.9793C37.6339 26.9793 37.6336 26.9794 37.6334 26.9795C37.6329 26.9797 37.6323 26.98 37.6316 26.9802C37.6302 26.9808 37.6284 26.9816 37.626 26.9825C37.6214 26.9844 37.6149 26.9871 37.6067 26.9905C37.5903 26.9973 37.5669 27.007 37.5369 27.0198C37.4769 27.0452 37.3906 27.0824 37.2817 27.131C37.0641 27.2282 36.7558 27.3712 36.3869 27.5569C35.651 27.9273 34.6645 28.4725 33.6731 29.1685C32.6857 29.8617 31.6665 30.7231 30.8881 31.7335C30.1088 32.745 29.5384 33.9494 29.5384 35.3073H31.0769C31.0769 34.3962 31.4583 33.5142 32.1068 32.6724C32.7562 31.8296 33.6408 31.0709 34.5571 30.4276C35.4695 29.7871 36.3867 29.2794 37.0787 28.9311C37.4236 28.7574 37.7103 28.6246 37.9091 28.5357C38.0085 28.4914 38.0858 28.458 38.1373 28.4362C38.1631 28.4253 38.1824 28.4172 38.1948 28.4121C38.201 28.4095 38.2055 28.4077 38.2082 28.4066C38.2095 28.406 38.2104 28.4057 38.2109 28.4055C38.2111 28.4054 38.2112 28.4054 38.2112 28.4054C38.2112 28.4054 38.2111 28.4054 38.2111 28.4054C38.211 28.4055 38.2108 28.4055 37.9226 27.6923Z" fill="white"/>
</svg>
