<svg width="24" height="24" viewBox="0 0 24 24" fill="none" xmlns="http://www.w3.org/2000/svg">
<path d="M8 9L9.36 10.7175C9.67664 11.1177 10.0783 11.4407 10.5353 11.6627C10.9923 11.8847 11.4929 12 12 12C12.5071 12 13.0077 11.8847 13.4647 11.6627C13.9217 11.4407 14.3234 11.1177 14.64 10.7175L16 9" stroke="white" stroke-opacity="0.4" stroke-width="2" stroke-linecap="round" stroke-linejoin="round"/>
<path d="M16 4H8C5.23858 4 3 6.23858 3 9V15C3 17.7614 5.23858 20 8 20H16C18.7614 20 21 17.7614 21 15V9C21 6.23858 18.7614 4 16 4Z" stroke="white" stroke-opacity="0.4" stroke-width="2" stroke-linecap="round" stroke-linejoin="round"/>
</svg>
